<?xml version="1.0" encoding="UTF-8" standalone="no"?>
<!-- Created with Inkscape (http://www.inkscape.org/) -->

<svg
   xmlns:dc="http://purl.org/dc/elements/1.1/"
   xmlns:cc="http://creativecommons.org/ns#"
   xmlns:rdf="http://www.w3.org/1999/02/22-rdf-syntax-ns#"
   xmlns:svg="http://www.w3.org/2000/svg"
   xmlns="http://www.w3.org/2000/svg"
   xmlns:sodipodi="http://sodipodi.sourceforge.net/DTD/sodipodi-0.dtd"
   xmlns:inkscape="http://www.inkscape.org/namespaces/inkscape"
   width="100"
   height="100"
   viewBox="0 0 26.458334 26.458334"
   version="1.1"
   id="svg3962"
   inkscape:version="0.92.2 (5c3e80d, 2017-08-06)"
   sodipodi:docname="4-sixes-logo[100x100].svg">
  <defs
     id="defs3956" />
  <sodipodi:namedview
     id="base"
     pagecolor="#ffffff"
     bordercolor="#666666"
     borderopacity="1.0"
     inkscape:pageopacity="0.0"
     inkscape:pageshadow="2"
     inkscape:zoom="5.6"
     inkscape:cx="74.665229"
     inkscape:cy="32.068465"
     inkscape:document-units="mm"
     inkscape:current-layer="layer5"
     showgrid="false"
     inkscape:snap-nodes="false"
     inkscape:snap-others="false"
     inkscape:window-width="1920"
     inkscape:window-height="1017"
     inkscape:window-x="-8"
     inkscape:window-y="-8"
     inkscape:window-maximized="1"
     units="px" />
  <metadata
     id="metadata3959">
    <rdf:RDF>
      <cc:Work
         rdf:about="">
        <dc:format>image/svg+xml</dc:format>
        <dc:type
           rdf:resource="http://purl.org/dc/dcmitype/StillImage" />
        <dc:title></dc:title>
      </cc:Work>
    </rdf:RDF>
  </metadata>
  <g
     inkscape:label="Diamond"
     inkscape:groupmode="layer"
     id="layer1"
     style="display:inline"
     transform="translate(0,-270.54165)">
    <g
       id="layer1-3"
       inkscape:label="Layer 1"
       transform="matrix(0.0760539,-0.02768134,0.02768134,0.0760539,-0.21318905,275.99719)">
      <path
         sodipodi:nodetypes="ccccccccc"
         id="path3229"
         d="m 199,10 c 0,-5 -4,-9 -9,-9 H 10 C 5,1 1,5 1,10 v 230 c 0,5 4,9 9,9 h 180 c 5,0 9,-4 9,-9 z"
         style="fill:#ffffff;fill-opacity:1;fill-rule:evenodd;stroke:#000000;stroke-width:2;stroke-linecap:butt;stroke-linejoin:miter;stroke-miterlimit:4;stroke-dasharray:none;stroke-opacity:1"
         inkscape:connector-curvature="0" />
      <text
         id="text3225"
         y="40"
         x="21.2195"
         style="font-style:normal;font-variant:normal;font-weight:normal;font-stretch:normal;line-height:0%;font-family:'Nimbus Roman No9 L';text-align:center;writing-mode:lr-tb;text-anchor:middle;fill:#ff0000;fill-opacity:1;stroke:#ff0000;stroke-width:1px;stroke-linecap:butt;stroke-linejoin:miter;stroke-opacity:1"
         xml:space="preserve"><tspan
           style="font-style:normal;font-variant:normal;font-weight:normal;font-stretch:normal;font-size:32px;line-height:125%;font-family:'Nimbus Roman No9 L';text-align:center;writing-mode:lr-tb;text-anchor:middle;fill:#ff0000;fill-opacity:1;stroke:#ff0000;stroke-opacity:1"
           y="40"
           x="21.2195"
           id="tspan3227"
           sodipodi:role="line">6</tspan></text>
      <text
         transform="scale(-1)"
         id="text3633"
         y="-213.752"
         x="-177.4115"
         style="font-style:normal;font-variant:normal;font-weight:normal;font-stretch:normal;line-height:0%;font-family:'Nimbus Roman No9 L';text-align:center;writing-mode:lr-tb;text-anchor:middle;fill:#ff0000;fill-opacity:1;stroke:#ff0000;stroke-width:1px;stroke-linecap:butt;stroke-linejoin:miter;stroke-opacity:1"
         xml:space="preserve"><tspan
           style="font-style:normal;font-variant:normal;font-weight:normal;font-stretch:normal;font-size:32px;line-height:125%;font-family:'Nimbus Roman No9 L';text-align:center;writing-mode:lr-tb;text-anchor:middle;fill:#ff0000;fill-opacity:1;stroke:#ff0000;stroke-opacity:1"
           y="-213.752"
           x="-177.4115"
           id="tspan3635"
           sodipodi:role="line">6</tspan></text>
      <path
         id="path4416"
         d="m 170.1155,199.8 7.2,-8.8 7.2,8.4 -7.2,9.6 z"
         style="fill:#ff0000;fill-opacity:1;fill-rule:evenodd;stroke:#ff0000;stroke-width:1px;stroke-linecap:butt;stroke-linejoin:miter;stroke-opacity:1"
         inkscape:connector-curvature="0" />
      <path
         id="path4418"
         d="m 14.1155,52.3 7.2,-8.8 7.2,8.4 -7.2,9.6 z"
         style="fill:#ff0000;fill-opacity:1;fill-rule:evenodd;stroke:#ff0000;stroke-width:1px;stroke-linecap:butt;stroke-linejoin:miter;stroke-opacity:1"
         inkscape:connector-curvature="0" />
      <path
         id="path4486"
         d="m 36.5,46.5 18,-22 18,21 -18,24 z"
         style="fill:#ff0000;fill-opacity:1;fill-rule:evenodd;stroke:#ff0000;stroke-width:1px;stroke-linecap:butt;stroke-linejoin:miter;stroke-opacity:1"
         inkscape:connector-curvature="0" />
      <path
         id="path4488"
         d="m 126.5,46.5 18,-22 18,21 -18,24 z"
         style="fill:#ff0000;fill-opacity:1;fill-rule:evenodd;stroke:#ff0000;stroke-width:1px;stroke-linecap:butt;stroke-linejoin:miter;stroke-opacity:1"
         inkscape:connector-curvature="0" />
      <path
         id="path4490"
         d="m 36.5,206 18,-22 18,21 -18,24 z"
         style="fill:#ff0000;fill-opacity:1;fill-rule:evenodd;stroke:#ff0000;stroke-width:1px;stroke-linecap:butt;stroke-linejoin:miter;stroke-opacity:1"
         inkscape:connector-curvature="0" />
      <path
         id="path4492"
         d="m 126.5,206 18,-22 18,21 -18,24 z"
         style="fill:#ff0000;fill-opacity:1;fill-rule:evenodd;stroke:#ff0000;stroke-width:1px;stroke-linecap:butt;stroke-linejoin:miter;stroke-opacity:1"
         inkscape:connector-curvature="0" />
      <path
         id="path4561"
         d="m 36.5,126.25 18,-22 18,21 -18,24 z"
         style="fill:#ff0000;fill-opacity:1;fill-rule:evenodd;stroke:#ff0000;stroke-width:1px;stroke-linecap:butt;stroke-linejoin:miter;stroke-opacity:1"
         inkscape:connector-curvature="0" />
      <path
         id="path4563"
         d="m 126.5,126.25 18,-22 18,21 -18,24 z"
         style="fill:#ff0000;fill-opacity:1;fill-rule:evenodd;stroke:#ff0000;stroke-width:1px;stroke-linecap:butt;stroke-linejoin:miter;stroke-opacity:1"
         inkscape:connector-curvature="0" />
    </g>
  </g>
  <g
     inkscape:groupmode="layer"
     id="layer3"
     inkscape:label="Club"
     style="display:inline"
     transform="translate(0,-270.54165)">
    <g
       id="layer1-4"
       inkscape:label="Layer 1"
       transform="matrix(0.07977126,-0.01367494,0.01367494,0.07977126,3.127228,274.88251)">
      <path
         sodipodi:nodetypes="ccccccccc"
         id="path3229-2"
         d="m 199,10 c 0,-5 -4,-9 -9,-9 H 10 C 5,1 1,5 1,10 v 230 c 0,5 4,9 9,9 h 180 c 5,0 9,-4 9,-9 z"
         style="fill:#ffffff;fill-opacity:1;fill-rule:evenodd;stroke:#000000;stroke-width:2;stroke-linecap:butt;stroke-linejoin:miter;stroke-miterlimit:4;stroke-dasharray:none;stroke-opacity:1"
         inkscape:connector-curvature="0" />
      <text
         id="text3225-7"
         y="40"
         x="21.2195"
         style="font-style:normal;font-variant:normal;font-weight:normal;font-stretch:normal;line-height:0%;font-family:'Nimbus Roman No9 L';text-align:center;writing-mode:lr-tb;text-anchor:middle;fill:#ff0000;fill-opacity:1;stroke:#ff0000;stroke-width:1px;stroke-linecap:butt;stroke-linejoin:miter;stroke-opacity:1"
         xml:space="preserve"><tspan
           style="font-style:normal;font-variant:normal;font-weight:normal;font-stretch:normal;font-size:32px;line-height:125%;font-family:'Nimbus Roman No9 L';text-align:center;writing-mode:lr-tb;text-anchor:middle;fill:#000000;fill-opacity:1;stroke:#000000;stroke-opacity:1"
           y="40"
           x="21.2195"
           id="tspan3227-1"
           sodipodi:role="line">6</tspan></text>
      <text
         transform="scale(-1)"
         id="text3633-0"
         y="-213.752"
         x="-177.4115"
         style="font-style:normal;font-variant:normal;font-weight:normal;font-stretch:normal;line-height:0%;font-family:'Nimbus Roman No9 L';text-align:center;writing-mode:lr-tb;text-anchor:middle;fill:#ff0000;fill-opacity:1;stroke:#ff0000;stroke-width:1px;stroke-linecap:butt;stroke-linejoin:miter;stroke-opacity:1"
         xml:space="preserve"><tspan
           style="font-style:normal;font-variant:normal;font-weight:normal;font-stretch:normal;font-size:32px;line-height:125%;font-family:'Nimbus Roman No9 L';text-align:center;writing-mode:lr-tb;text-anchor:middle;fill:#000000;fill-opacity:1;stroke:#000000;stroke-opacity:1"
           y="-213.752"
           x="-177.4115"
           id="tspan3635-1"
           sodipodi:role="line">6</tspan></text>
      <path
         sodipodi:nodetypes="cscsccccccsc"
         id="path4940"
         d="m 175.5155,201.2 c -2.4,1.2 -3.6,7.6 2,7.6 5.6,0 4.4,-6.4 2,-7.6 1.6,1.2 6.8,2.8 6.8,-2.8 0,-5.6 -7.2,-5.2 -7.6,-0.8 h -0.8 c 0,0 0.4,-4.4 1.6,-6.4 h -4 c 1.2,2 1.6,6.4 1.6,6.4 h -0.8 c -0.4,-4.4 -8,-4.8 -8,0.8 0,4.8 5.6,4 7.2,2.8 z"
         style="fill:#000000;fill-opacity:1;fill-rule:evenodd;stroke:#000000;stroke-width:1px;stroke-linecap:butt;stroke-linejoin:miter;stroke-opacity:1"
         inkscape:connector-curvature="0" />
      <path
         sodipodi:nodetypes="cscsccccccsc"
         id="path4943"
         d="m 19.5155,51.3 c -2.4,-1.2 -3.6,-7.6 2,-7.6 5.6,0 4.4,6.4 2,7.6 1.6,-1.2 6.8,-2.8 6.8,2.8 0,5.6 -7.2,5.2 -7.6,0.8 h -0.8 c 0,0 0.4,4.4 1.6,6.4 h -4 c 1.2,-2 1.6,-6.4 1.6,-6.4 h -0.8 c -0.4,4.4 -8,4.8 -8,-0.8 0,-4.8 5.6,-4 7.2,-2.8 z"
         style="fill:#000000;fill-opacity:1;fill-rule:evenodd;stroke:#000000;stroke-width:1px;stroke-linecap:butt;stroke-linejoin:miter;stroke-opacity:1"
         inkscape:connector-curvature="0" />
      <path
         sodipodi:nodetypes="cscsccccccsc"
         id="path5014"
         d="m 52.5,45 c -6,-3 -9,-19 5,-19 14,0 11,16 5,19 4,-3 17,-7 17,7 0,14 -18,13 -19,2 h -2 c 0,0 1,11 4,16 h -10 c 3,-5 4,-16 4,-16 h -2 c -1,11 -20,12 -20,-2 0,-12 14,-10 18,-7 z"
         style="fill:#000000;fill-opacity:1;fill-rule:evenodd;stroke:#000000;stroke-width:1px;stroke-linecap:butt;stroke-linejoin:miter;stroke-opacity:1"
         inkscape:connector-curvature="0" />
      <path
         sodipodi:nodetypes="cscsccccccsc"
         id="path5016"
         d="m 137.5,45 c -6,-3 -9,-19 5,-19 14,0 11,16 5,19 4,-3 17,-7 17,7 0,14 -18,13 -19,2 h -2 c 0,0 1,11 4,16 h -10 c 3,-5 4,-16 4,-16 h -2 c -1,11 -20,12 -20,-2 0,-12 14,-10 18,-7 z"
         style="fill:#000000;fill-opacity:1;fill-rule:evenodd;stroke:#000000;stroke-width:1px;stroke-linecap:butt;stroke-linejoin:miter;stroke-opacity:1"
         inkscape:connector-curvature="0" />
      <path
         sodipodi:nodetypes="cscsccccccsc"
         id="path5018"
         d="m 137.5,208.5 c -6,3 -9,19 5,19 14,0 11,-16 5,-19 4,3 17,7 17,-7 0,-14 -18,-13 -19,-2 h -2 c 0,0 1,-11 4,-16 h -10 c 3,5 4,16 4,16 h -2 c -1,-11 -20,-12 -20,2 0,12 14,10 18,7 z"
         style="fill:#000000;fill-opacity:1;fill-rule:evenodd;stroke:#000000;stroke-width:1px;stroke-linecap:butt;stroke-linejoin:miter;stroke-opacity:1"
         inkscape:connector-curvature="0" />
      <path
         sodipodi:nodetypes="cscsccccccsc"
         id="path5020"
         d="m 52.5,208.5 c -6,3 -9,19 5,19 14,0 11,-16 5,-19 4,3 17,7 17,-7 0,-14 -18,-13 -19,-2 h -2 c 0,0 1,-11 4,-16 h -10 c 3,5 4,16 4,16 h -2 c -1,-11 -20,-12 -20,2 0,12 14,10 18,7 z"
         style="fill:#000000;fill-opacity:1;fill-rule:evenodd;stroke:#000000;stroke-width:1px;stroke-linecap:butt;stroke-linejoin:miter;stroke-opacity:1"
         inkscape:connector-curvature="0" />
      <path
         sodipodi:nodetypes="cscsccccccsc"
         id="path5105"
         d="m 52.5,123.75 c -6,-3 -9,-19 5,-19 14,0 11,16 5,19 4,-3 17,-7 17,7 0,14 -18,13 -19,2 h -2 c 0,0 1,11 4,16 h -10 c 3,-5 4,-16 4,-16 h -2 c -1,11 -20,12 -20,-2 0,-12 14,-10 18,-7 z"
         style="fill:#000000;fill-opacity:1;fill-rule:evenodd;stroke:#000000;stroke-width:1px;stroke-linecap:butt;stroke-linejoin:miter;stroke-opacity:1"
         inkscape:connector-curvature="0" />
      <path
         sodipodi:nodetypes="cscsccccccsc"
         id="path5107"
         d="m 137.5,123.75 c -6,-3 -9,-19 5,-19 14,0 11,16 5,19 4,-3 17,-7 17,7 0,14 -18,13 -19,2 h -2 c 0,0 1,11 4,16 h -10 c 3,-5 4,-16 4,-16 h -2 c -1,11 -20,12 -20,-2 0,-12 14,-10 18,-7 z"
         style="fill:#000000;fill-opacity:1;fill-rule:evenodd;stroke:#000000;stroke-width:1px;stroke-linecap:butt;stroke-linejoin:miter;stroke-opacity:1"
         inkscape:connector-curvature="0" />
    </g>
  </g>
  <g
     inkscape:groupmode="layer"
     id="layer4"
     inkscape:label="Heart"
     transform="translate(0,-270.54165)">
    <g
       id="layer1-2"
       inkscape:label="Layer 1"
       transform="matrix(0.08093486,0,0,0.08093486,6.8235937,274.32203)">
      <path
         sodipodi:nodetypes="ccccccccc"
         id="path3229-8"
         d="m 199,10 c 0,-5 -4,-9 -9,-9 H 10 C 5,1 1,5 1,10 v 230 c 0,5 4,9 9,9 h 180 c 5,0 9,-4 9,-9 z"
         style="fill:#ffffff;fill-opacity:1;fill-rule:evenodd;stroke:#000000;stroke-width:2;stroke-linecap:butt;stroke-linejoin:miter;stroke-miterlimit:4;stroke-dasharray:none;stroke-opacity:1"
         inkscape:connector-curvature="0" />
      <text
         id="text3225-5"
         y="40"
         x="21.2195"
         style="font-style:normal;font-variant:normal;font-weight:normal;font-stretch:normal;line-height:0%;font-family:'Nimbus Roman No9 L';text-align:center;writing-mode:lr-tb;text-anchor:middle;fill:#ff0000;fill-opacity:1;stroke:#ff0000;stroke-width:1px;stroke-linecap:butt;stroke-linejoin:miter;stroke-opacity:1"
         xml:space="preserve"><tspan
           style="font-style:normal;font-variant:normal;font-weight:normal;font-stretch:normal;font-size:32px;line-height:125%;font-family:'Nimbus Roman No9 L';text-align:center;writing-mode:lr-tb;text-anchor:middle;fill:#ff0000;fill-opacity:1;stroke:#ff0000;stroke-opacity:1"
           y="40"
           x="21.2195"
           id="tspan3227-0"
           sodipodi:role="line">6</tspan></text>
      <path
         sodipodi:nodetypes="csscssc"
         id="path3314"
         d="m 177.3155,205.4 c 0,1.2 -2,3.6 -4,3.6 -2,0 -4,-1.6 -4,-4.4 0,-4.4 6.4,-11.6 8,-13.6 1.6,2 8,9.2 8,13.6 0,2.8 -2,4.4 -4,4.4 -2.00998,0 -4,-2.4 -4,-3.6 z"
         style="fill:#ff0000;fill-opacity:1;fill-rule:evenodd;stroke:#ff0000;stroke-width:1px;stroke-linecap:butt;stroke-linejoin:miter;stroke-opacity:1"
         inkscape:connector-curvature="0" />
      <path
         sodipodi:nodetypes="csscssc"
         id="path3316"
         d="m 21.3155,47.1 c 0,-1.2 -2,-3.6 -4,-3.6 -2,0 -4,1.6 -4,4.4 0,4.4 6.4,11.6 8,13.6 1.6,-2 8,-9.2 8,-13.6 0,-2.8 -2,-4.4 -4,-4.4 -2.00998,0 -4,2.4 -4,3.6 z"
         style="fill:#ff0000;fill-opacity:1;fill-rule:evenodd;stroke:#ff0000;stroke-width:1px;stroke-linecap:butt;stroke-linejoin:miter;stroke-opacity:1"
         inkscape:connector-curvature="0" />
      <path
         sodipodi:nodetypes="csscssc"
         id="path3386"
         d="m 55.5,33.5 c 0,-3 -5,-9 -10,-9 -5,0 -10,4 -10,11 0,11 16,29 20,34 4,-5 20,-23 20,-34 0,-7 -5,-11 -10,-11 -5.024938,0 -10,6 -10,9 z"
         style="fill:#ff0000;fill-opacity:1;fill-rule:evenodd;stroke:#ff0000;stroke-width:1px;stroke-linecap:butt;stroke-linejoin:miter;stroke-opacity:1"
         inkscape:connector-curvature="0" />
      <path
         sodipodi:nodetypes="csscssc"
         id="path3388"
         d="m 143.5,33.5 c 0,-3 -5,-9 -10,-9 -5,0 -10,4 -10,11 0,11 16,29 20,34 4,-5 20,-23 20,-34 0,-7 -5,-11 -10,-11 -5.02494,0 -10,6 -10,9 z"
         style="fill:#ff0000;fill-opacity:1;fill-rule:evenodd;stroke:#ff0000;stroke-width:1px;stroke-linecap:butt;stroke-linejoin:miter;stroke-opacity:1"
         inkscape:connector-curvature="0" />
      <path
         sodipodi:nodetypes="csscssc"
         id="path3390"
         d="m 143.5,220 c 0,3 -5,9 -10,9 -5,0 -10,-4 -10,-11 0,-11 16,-29 20,-34 4,5 20,23 20,34 0,7 -5,11 -10,11 -5.02494,0 -10,-6 -10,-9 z"
         style="fill:#ff0000;fill-opacity:1;fill-rule:evenodd;stroke:#ff0000;stroke-width:1px;stroke-linecap:butt;stroke-linejoin:miter;stroke-opacity:1"
         inkscape:connector-curvature="0" />
      <path
         sodipodi:nodetypes="csscssc"
         id="path3392"
         d="m 55.5,220 c 0,3 -5,9 -10,9 -5,0 -10,-4 -10,-11 0,-11 16,-29 20,-34 4,5 20,23 20,34 0,7 -5,11 -10,11 -5.024938,0 -10,-6 -10,-9 z"
         style="fill:#ff0000;fill-opacity:1;fill-rule:evenodd;stroke:#ff0000;stroke-width:1px;stroke-linecap:butt;stroke-linejoin:miter;stroke-opacity:1"
         inkscape:connector-curvature="0" />
      <path
         sodipodi:nodetypes="csscssc"
         id="path3426"
         d="m 55.5,113.25 c 0,-3 -5,-9 -10,-9 -5,0 -10,4 -10,11 0,11 16,29 20,34 4,-5 20,-23 20,-34 0,-7 -5,-11 -10,-11 -5.024938,0 -10,6 -10,9 z"
         style="fill:#ff0000;fill-opacity:1;fill-rule:evenodd;stroke:#ff0000;stroke-width:1px;stroke-linecap:butt;stroke-linejoin:miter;stroke-opacity:1"
         inkscape:connector-curvature="0" />
      <path
         sodipodi:nodetypes="csscssc"
         id="path3461"
         d="m 143.5,113.25 c 0,-3 -5,-9 -10,-9 -5,0 -10,4 -10,11 0,11 16,29 20,34 4,-5 20,-23 20,-34 0,-7 -5,-11 -10,-11 -5.02494,0 -10,6 -10,9 z"
         style="fill:#ff0000;fill-opacity:1;fill-rule:evenodd;stroke:#ff0000;stroke-width:1px;stroke-linecap:butt;stroke-linejoin:miter;stroke-opacity:1"
         inkscape:connector-curvature="0" />
      <text
         transform="scale(-1)"
         id="text3633-8"
         y="-213.752"
         x="-177.4115"
         style="font-style:normal;font-variant:normal;font-weight:normal;font-stretch:normal;line-height:0%;font-family:'Nimbus Roman No9 L';text-align:center;writing-mode:lr-tb;text-anchor:middle;fill:#ff0000;fill-opacity:1;stroke:#ff0000;stroke-width:1px;stroke-linecap:butt;stroke-linejoin:miter;stroke-opacity:1"
         xml:space="preserve"><tspan
           style="font-style:normal;font-variant:normal;font-weight:normal;font-stretch:normal;font-size:32px;line-height:125%;font-family:'Nimbus Roman No9 L';text-align:center;writing-mode:lr-tb;text-anchor:middle;fill:#ff0000;fill-opacity:1;stroke:#ff0000;stroke-opacity:1"
           y="-213.752"
           x="-177.4115"
           id="tspan3635-2"
           sodipodi:role="line">6</tspan></text>
    </g>
  </g>
  <g
     inkscape:groupmode="layer"
     id="layer5"
     inkscape:label="Spade"
     transform="translate(0,-270.54165)">
    <g
       id="layer1-5"
       inkscape:label="Layer 1"
       transform="matrix(0.07969182,0.01413046,-0.01413046,0.07969182,10.663034,274.34651)">
      <path
         sodipodi:nodetypes="ccccccccc"
         id="path3229-0"
         d="m 199,10 c 0,-5 -4,-9 -9,-9 H 10 C 5,1 1,5 1,10 v 230 c 0,5 4,9 9,9 h 180 c 5,0 9,-4 9,-9 z"
         style="fill:#ffffff;fill-opacity:1;fill-rule:evenodd;stroke:#000000;stroke-width:2;stroke-linecap:butt;stroke-linejoin:miter;stroke-miterlimit:4;stroke-dasharray:none;stroke-opacity:1"
         inkscape:connector-curvature="0" />
      <text
         id="text3225-0"
         y="40"
         x="21.2195"
         style="font-style:normal;font-variant:normal;font-weight:normal;font-stretch:normal;line-height:0%;font-family:'Nimbus Roman No9 L';text-align:center;writing-mode:lr-tb;text-anchor:middle;fill:#ff0000;fill-opacity:1;stroke:#ff0000;stroke-width:1px;stroke-linecap:butt;stroke-linejoin:miter;stroke-opacity:1"
         xml:space="preserve"><tspan
           style="font-style:normal;font-variant:normal;font-weight:normal;font-stretch:normal;font-size:32px;line-height:125%;font-family:'Nimbus Roman No9 L';text-align:center;writing-mode:lr-tb;text-anchor:middle;fill:#000000;fill-opacity:1;stroke:#000000;stroke-opacity:1"
           y="40"
           x="21.2195"
           id="tspan3227-8"
           sodipodi:role="line">6</tspan></text>
      <text
         transform="scale(-1)"
         id="text3633-84"
         y="-213.752"
         x="-177.4115"
         style="font-style:normal;font-variant:normal;font-weight:normal;font-stretch:normal;line-height:0%;font-family:'Nimbus Roman No9 L';text-align:center;writing-mode:lr-tb;text-anchor:middle;fill:#ff0000;fill-opacity:1;stroke:#ff0000;stroke-width:1px;stroke-linecap:butt;stroke-linejoin:miter;stroke-opacity:1"
         xml:space="preserve"><tspan
           style="font-style:normal;font-variant:normal;font-weight:normal;font-stretch:normal;font-size:32px;line-height:125%;font-family:'Nimbus Roman No9 L';text-align:center;writing-mode:lr-tb;text-anchor:middle;fill:#000000;fill-opacity:1;stroke:#000000;stroke-opacity:1"
           y="-213.752"
           x="-177.4115"
           id="tspan3635-8"
           sodipodi:role="line">6</tspan></text>
      <path
         sodipodi:nodetypes="cssccccccssc"
         id="path3239"
         d="m 177.1155,209.2 c -3.2,-4.8 -7.4,-7.6 -7.4,-11.6 0,-3.6 2,-4.4 3.2,-4.4 1.6,0 2.8,0.8 2.8,3.6 0,0.8 0.8,0.8 0.8,0 0,-4 -0.8,-4 -1.6,-6 h 4.4 c -0.8,2 -1.6,2 -1.6,6 0,0.8 0.8,0.8 0.8,0 0,-3.2 1.2,-3.6 2.8,-3.6 1.2,0 3.6,0.8 3.6,4.4 0,4.05216 -4.6,6.8 -7.8,11.6 z"
         style="fill:#000000;fill-opacity:1;fill-rule:evenodd;stroke:#000000;stroke-width:1px;stroke-linecap:butt;stroke-linejoin:miter;stroke-opacity:1"
         inkscape:connector-curvature="0" />
      <path
         sodipodi:nodetypes="cssccccccssc"
         id="path3237"
         d="m 21.1155,43.3 c -3.2,4.8 -7.4,7.6 -7.4,11.6 0,3.6 2,4.4 3.2,4.4 1.6,0 2.8,-0.8 2.8,-3.6 0,-0.8 0.8,-0.8 0.8,0 0,4 -0.8,4 -1.6,6 h 4.4 c -0.8,-2 -1.6,-2 -1.6,-6 0,-0.8 0.8,-0.8 0.8,0 0,3.2 1.2,3.6 2.8,3.6 1.2,0 3.6,-0.8 3.6,-4.4 0,-4.05216 -4.6,-6.8 -7.8,-11.6 z"
         style="fill:#000000;fill-opacity:1;fill-rule:evenodd;stroke:#000000;stroke-width:1px;stroke-linecap:butt;stroke-linejoin:miter;stroke-opacity:1"
         inkscape:connector-curvature="0" />
      <path
         sodipodi:nodetypes="cssccccccssc"
         id="path3898"
         d="m 54,23.999999 c -8,12 -18.5,19 -18.5,29 0,9 5,11 8,11 4,0 7,-2 7,-9 0,-2.000001 2,-2.000001 2,0 0,9.999999 -2,10 -4,15 h 10.999999 c -2,-5.000001 -4,-5 -4,-15 0,-2 2,-2 2,0 0,8 3,9 7,9 3,0 9,-2 9,-11 0,-10.1304 -11.5,-17 -19.499999,-29 z"
         style="fill:#000000;fill-opacity:1;fill-rule:evenodd;stroke:#000000;stroke-width:1px;stroke-linecap:butt;stroke-linejoin:miter;stroke-opacity:1"
         inkscape:connector-curvature="0" />
      <path
         sodipodi:nodetypes="cssccccccssc"
         id="path3900"
         d="m 143.5,23.999999 c -8,12 -18.5,19 -18.5,29 0,9 5,11 8,11 4,0 7,-2 7,-9 0,-2.000001 2,-2.000001 2,0 0,9.999999 -2,10 -4,15 h 11 c -2,-5.000001 -4,-5 -4,-15 0,-2 2,-2 2,0 0,8 3,9 7,9 3,0 9,-2 9,-11 0,-10.1304 -11.5,-17 -19.5,-29 z"
         style="fill:#000000;fill-opacity:1;fill-rule:evenodd;stroke:#000000;stroke-width:1px;stroke-linecap:butt;stroke-linejoin:miter;stroke-opacity:1"
         inkscape:connector-curvature="0" />
      <path
         sodipodi:nodetypes="cssccccccssc"
         id="path3902"
         d="m 54,229.5 c -8,-12 -18.5,-19 -18.5,-29 0,-9 5,-11 8,-11 4,0 7,2 7,9 0,2 2,2 2,0 0,-10 -2,-10 -4,-15 h 11 c -2,5 -4,5 -4,15 0,2 2,2 2,0 0,-8 3,-9 7,-9 3,0 9,2 9,11 0,10.1304 -11.5,17 -19.5,29 z"
         style="fill:#000000;fill-opacity:1;fill-rule:evenodd;stroke:#000000;stroke-width:1px;stroke-linecap:butt;stroke-linejoin:miter;stroke-opacity:1"
         inkscape:connector-curvature="0" />
      <path
         sodipodi:nodetypes="cssccccccssc"
         id="path3904"
         d="m 143.5,229.5 c -8,-12 -18.5,-19 -18.5,-29 0,-9 5,-11 8,-11 4,0 7,2 7,9 0,2 2,2 2,0 0,-10 -2,-10 -4,-15 h 11 c -2,5 -4,5 -4,15 0,2 2,2 2,0 0,-8 3,-9 7,-9 3,0 9,2 9,11 0,10.1304 -11.5,17 -19.5,29 z"
         style="fill:#000000;fill-opacity:1;fill-rule:evenodd;stroke:#000000;stroke-width:1px;stroke-linecap:butt;stroke-linejoin:miter;stroke-opacity:1"
         inkscape:connector-curvature="0" />
      <path
         sodipodi:nodetypes="cssccccccssc"
         id="path3939"
         d="m 143.5,103.75 c -8,12 -18.5,19 -18.5,29 0,9 5,11 8,11 4,0 7,-2 7,-9 0,-2 2,-2 2,0 0,10 -2,10 -4,15 h 11 c -2,-5 -4,-5 -4,-15 0,-2 2,-2 2,0 0,8 3,9 7,9 3,0 9,-2 9,-11 0,-10.1304 -11.5,-17 -19.5,-29 z"
         style="fill:#000000;fill-opacity:1;fill-rule:evenodd;stroke:#000000;stroke-width:1px;stroke-linecap:butt;stroke-linejoin:miter;stroke-opacity:1"
         inkscape:connector-curvature="0" />
      <path
         sodipodi:nodetypes="cssccccccssc"
         id="path3975"
         d="m 54,103.75 c -8,12 -18.5,19 -18.5,29 0,9 5,11 8,11 4,0 7,-2 7,-9 0,-2 2,-2 2,0 0,10 -2,10 -4,15 h 11 c -2,-5 -4,-5 -4,-15 0,-2 2,-2 2,0 0,8 3,9 7,9 3,0 9,-2 9,-11 0,-10.1304 -11.5,-17 -19.5,-29 z"
         style="fill:#000000;fill-opacity:1;fill-rule:evenodd;stroke:#000000;stroke-width:1px;stroke-linecap:butt;stroke-linejoin:miter;stroke-opacity:1"
         inkscape:connector-curvature="0" />
    </g>
  </g>
</svg>
